<svg xmlns="http://www.w3.org/2000/svg" xmlns:xlink="http://www.w3.org/1999/xlink" viewBox="0 0 1200 470" width="1200" height="470" role="img" aria-labelledby="t d" >
<title id="t">Carlos Franco — Software Engineer · AI Product Builder</title><desc id="d">A neon bar sign reading Carlos Franco, with a neon martini glass and an 'Open to work' sign, above the words Software Engineer and AI Product Builder.</desc>
<style>
.on{animation:on 2.2s linear both}
.on2{animation:on 1.8s linear .7s both}
.on3{animation:on 1.6s linear 1.4s both}
@keyframes on{0%{opacity:0}8%{opacity:.85}11%{opacity:.1}18%{opacity:.9}22%{opacity:.2}30%{opacity:1}46%{opacity:.55}50%{opacity:1}100%{opacity:1}}
.buzz{animation:buzz 7s linear 3s infinite}
@keyframes buzz{0%,61%,63.5%,66%,100%{opacity:1}62%{opacity:.25}64.5%{opacity:.4}65%{opacity:.9}}
.breathe{animation:breathe 4.5s ease-in-out 2.4s infinite}
@keyframes breathe{0%,100%{opacity:.92}50%{opacity:1}}
.blink{animation:blink 5.3s steps(1) 2s infinite}
@keyframes blink{0%,70%,76%,100%{opacity:1}72%{opacity:.15}74%{opacity:1}75%{opacity:.2}}
.tw{animation:tw 9s linear 4s infinite}
.blink2{animation:blink 6.7s steps(1) 3.1s infinite}
@keyframes tw{0%,40%,44%,100%{opacity:1}41%{opacity:.1}42.5%{opacity:.8}43%{opacity:.05}}
.bokeh{animation:float linear infinite both}
@keyframes float{0%{transform:translateY(20px);opacity:0}15%{opacity:var(--o)}85%{opacity:var(--o)}100%{transform:translateY(-120px);opacity:0}}
.rise{animation:rise 1.2s cubic-bezier(.2,.7,.2,1) both}
@keyframes rise{from{opacity:0;transform:translateY(10px)}to{opacity:1;transform:none}}

@media (prefers-reduced-motion: reduce){*{animation:none!important;transition:none!important}}</style>
<defs><path id="deco-1" d="M24 0l322-758h7l322 758h-134l-226-576l83-56l-260 632zm202-271h249l40 100h-324z"/><path id="deco-25" d="M24 0l322-758h7l322 758h-134l-226-576l83-56l-260 632zm202-271h249l40 100h-324zm200-555q-33 0-54-14q-22-15-40-31q-12-10-23-19q-11-8-25-8q-13 0-22 10q-8 9-12 25q-4 16-3 37l-58-1q-4-39 7-71q12-33 36-52q24-20 58-20q26 0 45 14q19 14 36 28q14 13 27 23q12 10 26 10q19 0 26-21q6-22 6-54l58 1q5 42-6 75q-10 32-32 50q-22 18-50 18z"/><path id="deco-28" d="M299-728q111 0 175 45q65 45 65 138q0 62-29 105q-29 44-80 68q-50 23-118 25l-18-62q81 1 144 25q63 25 100 70q36 44 36 105q0 57-20 97q-21 39-56 64q-35 25-79 36q-44 12-92 12h-227v-728zm18 310q53 0 77-30q25-31 25-72q0-50-31-73q-31-23-84-23h-87v198zm5 310q37 0 67-10q30-11 48-34q18-22 18-56q0-38-21-59q-21-21-53-30q-32-9-67-9h-97v198z"/><path id="deco-29" d="M640-57q-16 11-48 27q-31 16-74 28q-44 11-97 10q-85-1-153-30q-68-30-115-80q-47-51-73-116q-25-66-25-140q0-83 26-152q26-69 74-120q48-50 114-78q66-28 144-28q69 0 123 18q55 19 92 42l-46 109q-28-19-70-38q-42-19-95-19q-48 0-92 20q-44 19-77 54q-33 36-52 83q-20 47-20 102q0 57 18 105q17 48 50 82q32 35 78 54q45 20 102 20q56 0 98-18q43-17 69-39z"/><path id="deco-35" d="M100 0v-728h207q108 0 185 33q76 33 123 87q47 54 69 120q21 67 21 134q0 82-29 147q-29 65-80 111q-50 47-116 72q-65 24-138 24zm117-112h104q58 0 106-16q48-17 83-48q36-32 56-79q19-47 19-107q0-68-23-116q-22-49-58-80q-37-30-80-44q-43-15-85-15h-122z"/><path id="deco-41" d="M100-728h483v112h-366v194h326v112h-326v198h380v112h-497z"/><path id="deco-61" d="M100-728h442v112h-325v205h283v111h-283v300h-117z"/><path id="deco-62" d="M679-67q-14 14-41 27q-28 13-62 24q-34 11-70 18q-36 6-68 6q-88 0-158-27q-71-27-121-75q-50-47-77-112q-27-65-27-141q0-95 30-167q30-73 82-122q52-50 119-75q68-25 143-25q66 0 123 15q56 15 96 38l-38 108q-19-11-49-21q-30-11-61-17q-31-6-56-6q-63 0-112 17q-50 18-85 52q-35 34-53 82q-19 49-19 111q0 56 19 102q20 46 55 79q35 33 84 50q49 18 108 18q34 0 66-6q32-6 55-19v-121h-137v-112h254z"/><path id="deco-71" d="M100-728h117v728h-117z"/><path id="deco-90" d="M100-728h117v616h358v112h-475z"/><path id="deco-99" d="M740 26l-559-542l34 14l3 502h-118v-753h6l550 542l-27-8l-2-509h116v754z"/><path id="deco-108" d="M55-363q0-76 29-143q29-67 80-119q51-52 118-81q68-30 145-30q76 0 143 30q68 29 120 81q51 52 80 119q30 67 30 143q0 77-30 145q-29 67-80 118q-52 51-120 80q-67 28-143 28q-78 0-145-28q-67-29-118-80q-51-50-80-118q-29-67-29-145zm120 0q0 54 19 101q20 47 55 82q35 36 81 56q46 20 100 20q52 0 98-20q45-20 79-56q34-35 53-82q20-47 20-101q0-55-20-102q-20-47-54-83q-34-36-80-56q-46-20-99-20q-53 0-99 20q-46 20-80 56q-35 36-54 84q-19 47-19 101z"/><path id="deco-139" d="M306-728q83 0 142 28q59 28 90 80q32 52 32 126q0 43-14 86q-13 43-42 78q-28 35-76 56q-47 21-116 21h-105v253h-117v-728zm16 363q38 0 64-13q26-13 40-33q15-20 22-42q6-22 6-39q0-17-6-38q-6-22-20-42q-14-19-39-32q-25-12-64-12h-108v251z"/><path id="deco-142" d="M305-728q60 0 110 16q50 15 85 45q35 30 54 73q20 44 20 100q0 43-13 86q-13 43-43 78q-29 34-77 56q-48 21-119 21h-105v253h-117v-728zm16 363q39 0 65-13q26-12 40-31q15-19 22-41q6-21 6-40q0-18-6-40q-6-21-20-40q-15-20-40-33q-25-13-63-13h-108v251zm126 69l186 296h-135l-190-293z"/><path id="deco-148" d="M482-580q-39-20-83-34q-44-15-84-15q-54 0-85 24q-32 24-32 66q0 30 22 53q21 22 56 38q34 17 72 32q33 12 66 28q32 17 58 41q26 24 41 59q15 36 15 88q0 57-28 104q-29 48-83 76q-54 28-131 28q-46 0-90-10q-43-10-82-28q-39-17-72-39l52-91q24 18 55 33q31 15 64 24q33 9 62 9q31 0 61-10q31-11 52-34q20-23 20-61q0-31-18-53q-17-22-46-38q-29-17-63-30q-34-13-69-29q-35-16-66-39q-30-24-49-58q-19-34-19-84q0-60 28-104q28-44 78-70q49-26 114-28q77 0 132 18q54 19 96 45z"/><path id="deco-156" d="M48-728h487v112h-188v616h-116v-616h-183z"/><path id="deco-161" d="M205-262q0 43 23 79q22 36 59 57q37 21 83 21q48 0 86-21q38-21 60-57q22-36 22-79v-466h115v469q0 79-38 139q-38 61-102 94q-64 34-143 34q-78 0-142-34q-64-33-102-94q-37-60-37-139v-469h116z"/><path id="deco-184" d="M37-724h136l180 516l-19-8l140-359l54 159l-200 450zm356 0h116l200 505l-23-4l166-501h125l-284 756z"/><path id="deco-439" d="M26-288q0-25 19-43q19-18 42-18q21 0 40 18q19 18 19 43q0 28-19 44q-19 17-40 17q-23 0-42-17q-19-16-19-44z"/><path id="deco-530" d="M689 0q-10 0-32 0q-22 0-45 0q-24 0-40 0q-17 0-17 0l-338-450q-9-14-23-36q-13-22-22-50q-10-27-10-56q0-42 21-80q21-38 61-63q41-25 101-25q64 0 113 26q50 25 81 61l-58 77q-31-30-60-48q-29-18-57-18q-40 0-61 24q-21 24-21 56q0 16 8 34q7 18 15 32q8 13 10 17zm-381-343q-27 0-52 11q-24 10-43 28q-19 18-30 41q-11 23-11 49q0 36 18 63q19 27 50 43q32 15 70 15q36 0 62-11q26-11 44-29q18-18 28-40l74 64q-26 50-82 85q-57 35-142 35q-68 0-123-29q-55-28-87-78q-32-49-32-112q0-48 22-88q21-41 58-71q36-30 81-48q45-18 93-19zm237-91h107l-120 305l-84-51z"/><path id="neon-6" d="M2291-1480q34 0 73 8q40 7 74 24q34 18 56 48q22 29 22 73q0 54-32 98q-31 44-88 75q-57 32-136 50q-80 17-176 17q-108 0-234-15q-23 72-34 161q-12 89-13 198q38-1 77-1q40-1 82-1q56 0 113 1q57 2 115 4q17 1 26 12q10 12 10 27q0 16-11 26q-11 10-26 10q-57 0-113-2q-57-2-112-2q-42 0-82 1q-40 0-79 1q0 14 1 27q0 13 0 27q0 156-47 277q-47 122-137 205q-91 83-223 126q-132 43-303 43q-126 0-224-22q-97-23-170-60q-74-37-126-84q-53-46-88-94q-35-47-56-92q-21-44-31-76q-1-3-1-6q-1-2-1-5q0-15 11-27q11-11 28-11q12 0 22 7q9 7 13 19q9 28 27 67q18 39 50 80q31 42 78 83q46 41 112 73q67 32 154 52q88 20 202 20q314 0 474-146q161-146 161-431q0-12-1-25q0-12 0-24q-101 4-186 10q-85 5-148 10q-64 6-103 10q-39 3-48 3q-17 0-30-9q-13-10-13-29q0-14 10-25q10-10 24-12q1 0 38-4q38-4 104-10q66-5 156-10q90-6 196-10q2-221 46-372q-109-16-222-38q-113-23-225-48q-112-25-221-50q-108-24-208-44q-100-20-188-32q-88-12-160-12q-101 0-188 20q-87 21-150 60q-64 39-100 96q-37 56-37 128q0 47 17 84q18 38 40 64q22 27 41 42q19 14 21 15q9 5 13 14q4 9 4 18q0 17-11 27q-12 11-26 11q-11 0-21-7q-24-16-51-42q-27-26-50-60q-22-33-37-75q-15-42-15-91q0-90 42-160q43-70 117-119q74-49 175-75q100-25 217-25q69 0 157 13q88 12 190 32q101 20 212 45q112 25 228 51q116 25 233 48q117 23 229 39q28-78 80-135q53-56 120-92q67-36 142-53q76-17 149-17zm149 151q0-24-16-39q-15-14-38-22q-23-9-48-12q-26-3-47-3q-48 0-107 10q-58 10-116 36q-57 26-108 71q-50 45-82 115q111 12 205 12q77 0 143-13q65-12 112-34q48-22 75-53q27-31 27-68z"/><path id="neon-27" d="M811-279q-4 8-17 33q-12 26-32 59q-19 33-45 69q-26 36-58 66q-32 30-69 50q-37 19-78 19q-58 0-98-37q-39-37-57-93q-34 57-81 91q-47 33-94 33q-37 0-67-13q-30-14-51-38q-21-25-32-58q-12-33-12-72q0-78 26-138q27-59 68-99q41-40 90-60q50-20 96-20q31 0 57 9q26 8 45 18q18 10 28 18q10 9 11 10q11 13 11 27q0 15-11 27q-11 11-26 11q-16 0-27-11q-2-2-9-8q-7-5-19-11q-12-6-28-11q-17-4-38-4q-31 0-66 14q-35 14-64 44q-29 29-48 74q-20 44-20 105q0 19 4 39q4 19 14 35q10 16 27 26q17 10 42 10q18 0 41-12q24-12 46-37q21-25 38-63q18-38 25-90q2-14 13-23q11-10 26-10q14 0 24 11q11 11 12 25q1 19 4 54q3 34 14 68q10 34 31 59q21 25 58 25q24 0 47-13q24-13 46-35q23-21 44-48q20-28 37-56q17-28 30-54q13-26 22-45q5-11 15-17q9-6 20-6q17 0 28 12q10 13 10 27q0 7-3 14z"/><path id="neon-29" d="M692-277q-6 11-20 40q-15 29-40 65q-24 37-58 76q-34 39-78 72q-44 32-98 53q-55 21-119 21q-57 0-101-20q-44-21-75-58q-31-38-47-89q-16-51-16-113q0-60 17-112q17-53 47-92q29-39 68-62q39-22 83-22q33 0 60 12q27 11 45 30q19 19 30 42q10 23 10 46q0 22-6 41q-5 19-14 33q-8 15-19 24q-11 8-22 8q-17 0-27-11q-11-11-11-27q0-8 3-14q4-6 8-12q5-7 8-16q4-10 4-25q0-21-20-38q-19-17-49-17q-28 0-53 17q-26 17-45 45q-19 29-31 68q-11 38-11 81q0 41 10 78q10 37 30 65q20 29 51 46q30 17 72 17q54 0 100-19q46-20 84-50q38-30 67-66q29-35 49-66q21-32 32-56q12-23 14-29q4-10 14-15q9-6 20-6q17 0 28 12q10 12 10 27q0 6-4 16z"/><path id="neon-38" d="M607-277q-11 23-27 55q-17 31-38 65q-21 34-47 67q-26 34-57 60q-30 27-64 44q-35 16-74 16q-60 0-103-37q-43-37-73-97q-30-60-48-136q-19-77-29-156q-10-80-13-155q-4-75-4-133q0-84 6-174q5-90 17-176q12-86 31-163q18-77 44-135q25-58 58-92q33-34 75-34q33 0 59 16q27 15 45 50q18 35 28 91q10 56 10 137q0 100-21 206q-21 107-57 215q-36 108-85 215q-49 108-105 210q25 127 67 200q42 72 101 72q40 0 77-32q37-31 68-74q31-43 54-88q24-44 37-71q5-10 14-15q9-6 20-6q17 0 27 12q11 12 11 27q0 6-4 16zm-501-402q0 64 3 123q3 59 8 113q42-81 80-173q38-91 67-184q29-94 46-186q18-93 18-177q0-118-19-169q-19-51-51-51q-21 0-40 29q-20 29-37 79q-17 50-31 118q-14 68-24 146q-9 78-14 163q-6 85-6 169z"/><path id="neon-40" d="M260-90q16-33 37-72q21-40 45-80q24-41 50-81q27-40 56-76q29-35 58-51q30-15 56-15q52 0 77 38q25 38 25 94q0 13-2 31q-1 19-2 40q-2 21-4 42q-1 22-1 41q0 24 3 46q2 22 9 39q7 16 20 26q13 9 34 9q38 0 74-29q36-30 67-70q30-41 52-83q23-42 34-68q5-11 14-17q10-6 21-6q17 0 27 12q11 13 11 27q0 7-3 14q-4 8-16 33q-12 25-32 58q-19 32-45 68q-26 37-57 67q-32 30-68 50q-37 20-77 20q-45 0-73-17q-28-18-44-46q-16-29-22-64q-5-34-5-69q0-15 1-34q2-19 4-40q3-21 4-42q2-21 2-40q0-32-10-43q-10-12-18-12q-16 0-36 18q-21 19-44 49q-22 30-46 67q-23 38-44 75q-20 37-38 71q-17 33-27 55q-20 42-40 57q-20 14-41 14q-29 0-46-18q-18-17-18-49q0-7 2-27q2-21 5-50q3-28 6-61q3-33 6-65q3-33 5-61q2-28 2-47q0-25-2-48q-2-23-8-28q-9 3-32 38q-23 34-59 121q-5 11-15 17q-10 6-21 6q-17 0-27-12q-10-11-10-26q0-7 3-15q45-107 85-157q39-51 78-51q23 0 39 11q16 12 25 31q10 19 14 42q5 23 5 47q0 18-3 56q-2 38-6 82q-4 43-8 86q-3 43-6 72z"/><path id="neon-41" d="M499-110q-25 0-44-4q-15 30-36 56q-21 25-49 44q-27 19-61 30q-34 11-74 11q-47 0-86-17q-39-16-68-46q-29-29-45-70q-16-42-16-92q0-64 23-112q23-47 53-78q30-32 60-48q30-15 45-15q17 0 25 9q9 9 9 24q0 17-11 26q-10 8-26 16q-16 8-34 22q-18 15-34 37q-15 22-25 52q-10 30-10 67q0 33 10 62q10 28 29 48q19 21 45 32q26 12 58 12q57 0 95-26q37-27 57-68q-59-31-97-88q-38-57-38-128q0-57 28-93q27-36 72-36q27 0 51 13q24 13 43 41q18 28 29 72q11 44 11 105q0 32-8 67q6 1 12 1q6 0 13 0q34 0 61-8q27-8 49-24q22-16 39-41q18-25 34-58q3-6 13-11q10-6 20-6q13 0 25 10q11 11 11 28q0 8-4 18q-4 9-8 17q-17 30-39 57q-23 28-54 48q-30 21-68 33q-38 12-85 11zm-171-252q0 19 5 40q5 21 15 42q11 20 26 38q16 19 37 32q3-21 3-41q0-27-4-55q-4-28-12-52q-7-23-18-38q-11-14-26-14q-6 0-16 9q-10 9-10 39z"/><path id="neon-44" d="M143-411q-4 27-10 51q-6 23-11 40q-6 18-10 29q-4 11-5 12q-10 23-35 23q-14 0-26-10q-12-11-12-27q0-6 2-9q2-3 6-12q4-9 10-30q6-21 15-65q-17 0-35-1q-18-1-34-7q-15-6-25-19q-10-13-10-36q0-17 9-46q10-29 26-57q16-28 36-49q20-20 40-20q23 0 38 17q14 17 22 41q8 25 12 52q3 27 3 47q17 0 33-1q17 0 32 0q57 0 87 25q30 25 30 82q0 23-3 48q-3 25-7 51q-4 27-7 53q-3 26-3 51q0 36 10 60q10 23 25 37q15 14 32 19q17 6 31 6q43 0 81-28q38-28 70-68q32-39 58-83q25-44 42-77q5-9 14-14q9-5 19-5q18 0 28 11q10 12 10 26q0 10-4 18q-23 41-53 92q-31 52-70 97q-39 45-88 76q-48 31-106 31q-36 0-68-14q-32-13-56-38q-23-26-37-64q-14-37-14-84q0-50 10-100q10-49 10-94q0-19-9-28q-8-10-37-10q-14 0-31 0q-16 0-35 1zm-67-74q0-7 0-19q-1-11-2-22q-2-11-4-19q-3-8-6-8q-3 0-8 7q-4 8-9 18q-5 11-9 23q-4 12-6 20z"/><path id="neon-45" d="M149-370q-6 16-15 36q-8 20-19 42q-9 17-19 26q-9 10-24 10q-17 0-27-10q-10-11-10-25q0-5 1-9q1-3 5-11q26-50 39-87q12-38 20-79q-7-23-10-39q-3-16-3-33q0-33 14-53q14-21 39-21q23 0 36 20q14 20 14 49q0 16-3 32q-3 16-8 40q23 57 46 101q23 44 41 81q18 36 30 68q11 32 11 64q0 42-17 80q-17 38-56 64q5 1 10 1q5 0 10 0q57 0 105-26q48-26 87-67q38-42 68-92q30-51 52-101q10-23 28-23q17 0 26 12q10 12 10 26q0 8-3 15q-11 27-29 61q-17 35-42 72q-24 36-56 71q-32 35-72 63q-39 27-86 44q-47 16-103 16q-67 0-125-24q-57-23-93-77q-6-9-6-19q0-15 11-26q12-12 27-12q16 0 27 11q1 2 7 7q6 4 15 10q8 5 20 9q11 4 23 4q24 0 41-10q16-10 26-25q10-14 14-30q5-17 5-29q0-25-8-50q-8-25-21-50q-12-25-26-51q-15-27-27-56z"/><path id="neon-365" d="M1674-371q-47 76-127 151q-80 74-183 134q-102 59-223 96q-121 36-250 36q-101 0-201-18q-101-18-194-55q-92-37-172-93q-79-57-138-134q-59-77-92-175q-34-98-34-218q0-117 34-222q35-105 97-195q62-89 147-161q85-72 186-123q101-50 213-77q112-27 229-27q129 0 242 30q114 31 199 86q85 56 135 134q49 77 49 172q0 88-41 168q-41 79-112 139q-72 60-168 95q-95 35-203 35q-87 0-154-21q-67-22-112-60q-45-38-68-89q-23-51-23-110q0-49 16-89q15-41 34-70q18-29 34-46q17-16 19-18q5-5 11-6q7-2 13-2q16 0 27 10q11 10 11 26q0 18-13 30q-2 1-14 14q-12 12-26 34q-14 21-26 51q-11 30-11 66q0 57 25 96q26 39 67 63q41 25 91 36q50 10 100 10q93 0 174-30q82-30 143-80q61-50 96-115q35-65 35-136q0-78-44-143q-44-64-119-110q-75-45-175-70q-101-25-215-25q-86 0-181 21q-94 20-186 61q-92 41-176 102q-83 61-146 143q-63 81-100 182q-38 101-38 221q0 109 30 197q31 88 85 156q54 69 127 119q72 50 156 83q83 32 174 48q91 15 181 15q120 0 231-33q111-34 206-88q94-55 167-123q73-68 116-137q5-9 14-14q9-4 19-4q17 0 27 12q10 11 10 25q0 5-1 10q-1 5-4 10z"/><path id="serifi-69" d="M185-106q-9 36-8 54q1 18 17 24q16 6 50 8l-4 20q-25-2-62-2q-38-1-77-1q-42 0-77 1q-36 0-60 2l5-20q33-2 51-8q19-6 30-24q11-18 20-54l132-496q10-37 8-54q-2-18-18-24q-15-7-49-8l5-20q22 1 58 2q37 1 79 1q39 0 77-1q37-1 63-2l-5 20q-34 1-53 8q-19 6-29 24q-11 17-21 54z"/><path id="serifi-94" d="M508 5l-240-624q0 0-2 3q-3 2-6 6q-3 3-6 6q-2 2-2 2q8-37 6-54q-3-18-20-24q-18-7-57-8l5-20q16 1 40 2q23 1 49 1q47 0 81-3l198 537q0 0-2 13q-2 12-4 32q-3 20-6 43q-3 23-6 43q-2 19-4 32q-2 13-2 13zm305-739q-27 1-47 15q-20 14-35 37q-46 68-94 239q-48 171-107 448l-14-28q15-67 32-145q17-77 36-155q20-78 40-149q21-71 44-128q22-56 45-90q19-27 45-46q26-18 63-18q38 0 55 18q16 19 16 44q0 30-18 54q-19 25-51 25q-26 0-37-15q-12-14-12-31q0-23 14-43q14-19 33-30q-2-1-3-2q-2 0-5 0zm-809 788q27-1 48-15q21-14 36-38q29-46 58-144q30-98 60-237q31-139 62-305l17 21q-16 82-33 166q-18 85-36 166q-18 80-37 149q-19 69-38 119q-19 51-37 75q-18 24-42 43q-25 20-65 20q-39 0-55-18q-17-19-17-45q0-30 19-54q19-24 51-24q27 0 37 15q11 14 11 31q0 23-13 43q-14 19-33 30q1 1 3 2q2 0 4 0z"/><path id="serifi-140" d="M772-831q28 0 42 17q14 16 14 39q0 26-15 46q-15 20-39 33q-27 16-68 24q-40 8-93 8q-41 0-83-4q-41-4-82-10q-42-6-82-10q-41-4-78-4q-32 0-64 3q-32 3-49 14q14 9 23 27q9 19 9 39q0 24-15 45q-15 21-44 21q-26 0-40-17q-13-17-13-42q0-22 11-46q12-23 46-39q23-11 50-16q26-5 49-6q23-1 35-1q60 0 115 6q55 7 109 14q54 6 110 6q44 0 74-5q30-5 54-17l-2 7q-11-10-22-28q-11-18-11-40q0-25 15-45q16-19 44-19zm-356 141q0 0 11 1q11 1 27 3q17 2 34 4q17 2 28 3q11 1 11 1l-149 562q-10 37-8 58q2 20 22 28q19 9 61 10l-4 20q-28-2-71-2q-44-1-90-1q-46 0-88 1q-43 0-68 2l4-20q42-2 66-10q23-9 36-30q14-20 25-56z"/><path id="serifi-190" d="M146-25q22 0 49-26q27-26 55-71q28-46 52-106q24-60 40-128l-18 109q-34 95-70 153q-35 57-72 82q-37 26-76 26q-50 0-75-34q-25-33-25-88q0-50 16-107q17-57 46-113q30-56 68-101q38-45 82-73q44-27 88-27q34 0 52 31q19 32 9 92l-11 6q7-47-6-76q-12-28-40-28q-24 0-51 24q-27 25-53 68q-25 42-46 95q-22 53-34 109q-12 57-12 111q0 40 8 56q9 16 24 16zm239-490q30-1 58-4q28-3 52-10l-127 443q-3 11-6 24q-2 14 2 24q3 10 18 10q18 0 36-20q18-19 36-74l14-41h19l-25 73q-14 41-34 63q-20 22-42 31q-23 10-44 10q-44 0-62-28q-13-22-8-54q4-31 13-65z"/><path id="serifi-214" d="M335-490q-24 0-53 33q-30 33-60 89q-31 56-58 127q-26 71-44 147l17-106q40-119 78-191q38-72 77-105q38-33 81-33q51 0 81 37q29 36 29 108q0 46-13 100q-12 53-37 106q-25 52-61 96q-37 44-84 70q-47 26-104 26q-29 0-52-16q-24-16-33-45l8-19q13 30 29 42q16 13 38 13q33 0 63-26q30-26 55-69q26-44 45-97q19-53 29-107q11-53 11-99q0-42-11-61q-11-20-31-20zm-224 439q-27 13-55 31q-29 17-56 36l-15-7q7-14 11-29q5-14 8-29l177-618q9-34-3-50q-11-16-60-16l6-21q60-1 106-12q47-10 88-29z"/><path id="serifi-221" d="M387-85q-7 23-5 41q3 17 22 17q18 0 34-20q17-20 35-74l14-41h19l-24 73q-12 40-32 63q-21 22-44 31q-24 9-45 9q-61 0-68-53q-4-17-1-41q2-23 11-52l142-535q9-34-3-50q-12-16-61-16l6-21q61-1 107-12q47-10 89-29zm-229 61q22 0 51-27q29-27 59-75q30-48 56-112q27-65 44-138l-15 108q-37 101-73 163q-37 62-76 91q-39 28-86 28q-31 0-56-14q-25-15-39-44q-14-30-14-77q0-47 15-102q16-55 44-109q29-54 70-98q40-45 90-72q50-27 108-27q26 0 44 17q19 16 21 48l-8 20q-4-33-18-48q-14-14-34-14q-34 0-67 25q-33 25-61 67q-28 43-49 95q-22 52-34 107q-12 56-12 107q0 41 10 61q10 20 30 20z"/><path id="serifi-225" d="M100-224q51-18 94-37q42-19 69-41q37-31 59-74q21-42 21-93q0-26-4-33q-4-8-12-8q-24 0-51 22q-28 22-55 60q-27 39-49 88q-23 48-36 102q-14 55-14 108q0 52 20 74q19 22 51 22q33 0 73-20q40-21 79-74l16 8q-20 33-52 64q-32 31-73 50q-40 20-87 20q-41 0-73-16q-32-16-50-48q-17-31-17-77q0-46 17-101q16-54 46-107q31-53 73-97q42-45 94-71q52-26 110-26q36 0 60 17q24 18 24 53q0 40-23 75q-22 34-60 62q-38 28-82 50q-45 22-90 38q-44 16-79 26z"/><path id="serifi-246" d="M63-495l6-20h307l-6 20zm336-271q-18 0-31 7q-14 7-25 17q-16 15-29 46q-12 30-23 70q-11 39-22 85l-192 715q-30 1-57 4q-27 3-52 10l188-701q21-81 46-135q26-53 61-85q25-23 59-36q35-13 72-13q51 0 79 22q28 23 28 57q0 18-10 35q-10 18-27 29q-16 11-38 11q-23 0-36-10q-13-11-12-30q0-28 18-48q17-21 45-30q-1-7-13-14q-11-6-29-6z"/><path id="serifi-255" d="M93 0h-105l198-667q10-34-2-50q-13-16-62-16l6-21q61-1 109-12q48-10 89-29zm27-147q39-108 74-182q34-74 68-118q33-44 68-63q36-19 76-19q47 0 66 22q18 22 17 57q-1 35-14 72l-97 293q-8 26-6 42q2 16 21 16q17 0 35-19q17-19 37-75l15-41h19l-25 73q-14 42-35 64q-21 22-45 31q-23 8-45 8q-43 0-61-19q-18-19-16-53q2-33 15-74l93-281q6-16 10-34q3-18-2-31q-5-13-26-13q-23 0-50 23q-27 24-56 67q-29 43-57 102q-28 59-54 131q-26 71-48 151z"/><path id="serifi-259" d="M185-692q4-32 28-52q24-20 55-20q29 0 46 18q16 19 12 46q-4 31-28 52q-25 20-56 20q-29 0-45-18q-16-19-12-46zm-33 262q19-58-13-58q-22 0-39 22q-17 23-35 72l-16 42h-19l26-74q15-41 36-63q21-22 46-31q24-9 47-9q33 0 50 13q17 13 21 34q4 21 0 46q-4 24-12 47l-106 304q-10 28-6 43q4 15 21 15q18 0 35-19q17-20 38-75l16-41h19l-26 73q-14 40-35 62q-21 22-44 31q-24 10-48 10q-43 0-60-20q-18-19-16-52q2-34 16-74z"/><path id="serifi-280" d="M115-85q-7 28-3 43q3 15 20 15q17 0 34-20q17-20 36-74l15-41h19l-25 73q-13 39-33 61q-20 23-43 32q-23 10-48 10q-33 0-50-12q-17-12-23-34q-5-21-2-47q4-26 12-53l161-535q10-34-2-50q-12-16-61-16l7-21q60-1 107-12q46-10 89-29z"/><path id="serifi-287" d="M134 0h-105l120-430q4-13 7-26q2-14-2-23q-4-9-19-9q-20 0-37 20q-16 20-35 74l-15 42h-19l25-74q22-61 54-82q33-21 69-21q32 0 47 13q15 13 18 34q4 20 0 44q-3 25-9 49zm41-195q36-96 69-161q34-64 66-102q32-38 66-54q33-17 70-17q48 0 66 22q19 22 18 57q-2 34-14 72l-97 293q-10 27-7 43q3 15 22 15q17 0 34-19q18-19 38-75l15-41h19l-25 73q-14 42-35 64q-22 22-46 31q-23 8-45 8q-25 0-42-8q-17-8-26-22q-12-19-9-48q3-30 16-68l93-281q5-15 8-33q3-18-1-32q-4-13-25-13q-22 0-48 22q-26 22-55 63q-28 40-55 95q-27 55-52 119q-25 65-46 137z"/><path id="serifi-294" d="M313-509q-29 0-57 26q-28 26-52 71q-25 44-44 99q-19 55-30 114q-10 59-10 112q0 42 12 61q13 20 37 20q29 0 57-26q28-26 53-70q25-44 43-98q19-55 30-114q10-59 10-114q0-44-12-62q-12-19-37-19zm-295 363q0-44 12-96q12-52 37-103q25-51 61-93q35-41 84-66q48-25 107-25q67 0 106 39q39 40 39 121q0 44-12 96q-12 52-37 103q-25 51-61 92q-35 42-84 67q-48 25-107 25q-67 0-106-40q-39-40-39-120z"/><path id="serifi-322" d="M133 0h-105l120-430q9-32 6-45q-3-13-19-13q-20 0-37 21q-17 21-36 73l-15 42h-19l25-74q15-41 36-63q21-22 45-31q23-9 46-9q31 0 45 13q14 13 17 34q3 21 0 46q-4 24-10 47zm256-505q-22 0-46 19q-24 18-49 55q-25 37-50 93q-26 56-52 130q-25 75-50 169l24-130q32-102 60-171q28-69 56-110q27-42 56-60q30-19 64-19q32 0 50 19q17 18 17 46q0 23-11 42q-11 18-28 30q-18 11-40 11q-21 0-34-11q-13-12-13-33q0-19 8-34q8-15 21-26q13-11 29-16q-2-2-5-3q-3-1-7-1z"/><path id="serifi-326" d="M64-15q8 4 18 7q9 2 26 2q41 0 68-26q27-25 27-72q0-31-13-63q-12-32-40-72q-23-34-44-67q-20-34-20-79q0-43 21-75q21-32 59-50q37-19 84-19q31 0 62 7q30 8 50 28q20 20 20 58q0 11-6 25q-5 14-16 24q-11 10-29 10q-19 0-32-14q-13-14-13-36q0-21 8-39q8-19 21-34q-17-10-45-10q-37 0-60 24q-24 24-24 67q0 23 7 41q7 19 21 39q14 20 32 48q26 41 42 76q17 35 17 73q0 45-23 80q-24 36-64 56q-40 20-91 20q-36 0-69-10q-34-11-55-34q-21-22-21-61q0-18 10-36q11-18 35-18q25 0 37 21q11 20 11 47q0 20-4 35q-4 15-7 27z"/><path id="serifi-334" d="M384-515l-3 20h-323l5-20zm-249 430q-8 31 4 45q12 13 32 13q22 0 44-19q22-20 42-76l14-40h19l-21 61q-21 64-57 89q-36 26-84 26q-43 0-66-18q-22-19-26-52q-4-34 8-76l153-534q30-1 57-4q28-3 51-10z"/><path id="serifi-339" d="M396-348q-37 104-70 174q-33 69-66 110q-32 42-66 60q-34 18-70 18q-44 0-64-20q-21-19-22-53q-1-34 13-78l97-293q10-30 6-44q-3-14-21-14q-17 0-35 19q-17 19-37 75l-15 41h-19l25-73q15-42 36-64q22-22 46-30q23-9 44-9q44 0 61 20q17 20 15 53q-1 34-15 73l-93 281q-26 78 18 78q22 0 48-22q26-23 54-65q27-42 54-99q27-57 52-126q25-69 45-146zm14 263q-7 26-6 42q0 16 19 16q21 0 39-21q17-22 34-73l15-42h19l-25 74q-14 41-35 63q-21 22-44 31q-24 9-47 9q-19 0-35-8q-15-7-23-21q-9-18-7-44q2-26 12-67l99-389q31-1 59-4q27-3 50-10z"/><path id="serifi-360" d="M297-64q-32 34-72 56q-40 22-88 22q-46 0-74-16q-28-16-41-43q-13-27-13-58q0-48 28-99q28-50 73-100q46-50 102-98q57-47 114-89l12-1q-20 5-40 16q-20 11-38 23q-17 12-34 21q-16 9-32 9q-19 0-32-11q-13-12-30-12q-15 0-25 12q-10 13-20 45l-11 34h-19l22-73q20-60 44-81q24-21 50-21q19 0 33 9q14 9 29 18q15 9 37 9q22 0 41-6q19-7 38-22l13-19l21 10q-50 45-97 96q-46 51-82 105q-37 54-58 110q-22 57-22 113q0 46 14 65q14 19 39 19q27 0 57-15q29-16 56-46zm126 38q44 0 77-25q34-25 56-65q22-40 34-87q12-47 15-92q3-45-4-79q-22-6-47-19q-25-13-42-33q-18-21-18-52q0-25 14-38q15-13 33-13q19 0 33 11q13 12 22 32q10 20 16 44q7 24 10 50q8 45 4 100q-3 55-19 108q-16 54-45 99q-29 45-72 72q-44 27-104 27q-32 0-60-12q-28-12-46-42q-17-30-17-83q0-45 15-87q15-42 38-76q24-33 50-53q26-20 48-20q15 0 23 11q8 11 11 27q2 16 2 31q0 56-29 112q-29 57-90 105l-5-18q46-38 74-91q27-54 27-108q0-20-4-34q-4-13-15-13q-15 0-33 25q-18 25-31 64q-13 39-13 82q0 35 9 67q9 32 30 53q20 20 53 20z"/><path id="serifi-366" d="M291-47l-80 89l-78-470q-5-30-11-42q-6-11-19-11q-10 0-23 17q-13 16-32 69l-14 41h-19l25-73q21-61 52-81q31-21 65-21q35 0 55 21q19 20 27 76zm-226 187q45-23 94-62q49-40 101-107q58-73 104-162q46-89 66-177q-19-11-38-26q-20-16-32-36q-13-20-12-45q2-26 17-40q15-14 40-14q29 0 43 21q13 22 13 63q0 50-17 107q-16 58-44 118q-29 60-64 116q-35 55-72 101q-21 26-52 57q-32 32-72 62q-39 30-87 50q-27 12-47 17q-21 5-34 5q-24 0-40-12q-17-12-17-34q0-23 17-37q18-14 42-14q26 0 48 15q23 14 43 34z"/><path id="serifi-861" d="M-1-40q0-33 25-58q25-25 57-25q26 0 41 15q15 16 15 40q0 22-11 40q-12 19-30 30q-19 12-41 12q-26 0-41-15q-15-15-15-39z"/><path id="tilt-5" d="M423-590q25 0 38-14q13-13 13-31q0-18-13-31q-13-14-38-14q-30 0-49 0q-19 0-36 0q-18 0-44 0q-15 0-26 0q-11 0-25 0q-14 0-37 0q-46 0-74 15q-27 15-40 45q-12 31-12 76q0 19 0 42q0 22 0 43q0 21 0 33q0 26 8 48q9 22 24 38q15 17 34 26q20 9 43 9q13 0 41 0q28 0 60 0q33 0 64 0q30 0 49 0q20 0 32-9q12-9 16-22q4-14 0-28q-4-13-16-22q-12-9-32-9q-19 0-45 0q-27 0-57 0q-30 0-59 0q-28 0-52 0q-38 0-62 11q-25 12-36 34q-12 22-12 53q0 24 0 56q0 32 0 64q0 32 0 55q0 44 14 71q15 27 42 39q28 12 68 12q12 0 22 0q9 0 23 0q14 0 39 0q23 0 62 0q39 0 73 0q25 0 37-14q13-13 13-31q0-18-13-31q-12-14-37-14q-34 0-55 0q-22 0-40 0q-17 0-40 0q-25 0-41 0q-16 0-43 0q-22 0-28-4q-6-4-6-28q0-15 0-43q0-28 0-63q0-34 0-69q0-8 5-8q5 0 15 0q16 0 44 0q27 0 59 0q32 0 61 0q30 0 49 0q20 0 32-9q12-9 16-22q4-14 0-28q-4-13-16-22q-12-9-32-9q-19 0-47 0q-28 0-59 0q-31 0-59 0q-29 0-49 0q-5 0-9-3q-3-3-6-8q-2-4-3-10q-1-5-1-10q0-18 0-35q0-17 0-37q0-20 0-46q0-28 4-37q4-9 32-9q16 0 28 0q11 0 24 0q14 0 36 0q26 0 62 0q37 0 67 0z"/><path id="tilt-11" d="M170-640q0-25-14-38q-13-13-31-13q-18 0-31 13q-14 13-14 38q0 20 0 43q0 23 0 46q0 23 0 43q0 55 0 105q0 50 0 95q0 44 0 84q0 41 0 78q0 18 0 36q0 19 0 37q0 18 0 33q0 25 14 38q13 13 31 13q18 0 31-13q14-13 14-38q0-18 0-34q0-16 0-34q0-17 0-38q0-55 0-104q0-50 0-95q0-45 0-85q0-41 0-78q0-24 0-45q0-21 0-42q0-21 0-45zm368 33q18-17 18-35q0-19-12-32q-12-13-30-14q-19-2-38 15q-15 14-30 28q-15 14-30 27q-14 14-30 28q-15 13-30 27q-13 11-32 27q-19 17-40 35q-22 18-41 35q-19 16-31 27q-32 27-46 49q-14 23-11 44q3 21 21 44q18 24 50 52q20 19 51 48q31 28 67 62q36 34 72 68q36 35 65 64q18 18 37 17q18-1 31-13q13-13 13-32q1-18-17-36q-31-30-67-64q-36-35-72-70q-37-34-68-63q-31-29-52-47q-15-14-20-24q-5-10 0-20q5-10 20-23q17-14 40-35q24-21 48-42q23-20 40-35q21-18 42-37q20-18 40-37q21-19 42-38z"/><path id="tilt-14" d="M80-40q0 25 14 38q13 12 31 12q18 0 31-12q14-13 14-38q0-23 0-42q0-20 0-40q0-20 0-42q0-34 0-64q0-30 0-58q0-28 0-56q0-27 0-56q0-15 0-27q0-12 0-21q0-10 0-18q0-9 0-16q0-8 0-15q0-7 0-11q0-4 0-6q0-2 2-1q1 1 3 4q2 3 6 8q4 6 9 13q4 6 10 15q6 9 14 21q9 12 20 28q15 22 33 48q18 25 37 52q20 28 40 56q20 28 38 55q18 27 34 50q10 15 18 27q8 12 16 23q7 11 15 23q8 11 17 24q9 13 21 29q14 19 29 30q15 11 28 13q14 3 24-2q11-6 18-18q6-13 6-33q0-15 0-29q0-15 0-29q0-14 0-28q0-14 0-28q0-14 0-28q0-26 0-67q0-40 0-86q0-45 0-88q0-42 0-72q0-30 0-52q0-23 0-44q0-20 0-42q0-26-14-38q-13-13-31-13q-18 0-31 13q-14 12-14 38q0 22 0 44q0 22 0 44q0 21 0 43q0 16 0 45q0 28 0 63q0 35 0 71q0 37 0 71q0 34 0 60q0 34-8 57q-7 22-14 38q-7 16-8 32q0 15 15 35q14 19 29 30q15 11 28 13q14 3 24-2q11-6 18-18q6-13 6-33q0-19-12-39q-12-20-31-42q-19-22-41-47q-21-25-41-54q-21-31-47-68q-26-37-54-75q-27-38-52-72q-25-35-43-61q-12-17-24-34q-12-17-25-35q-12-18-26-36q-13-19-28-39q-14-20-29-30q-15-10-29-11q-13-2-24 5q-10 7-16 21q-6 15-6 36q0 27 0 50q0 24 0 46q0 23 0 48q0 24 0 52q0 24 0 53q0 29 0 59q0 30 0 59q0 29 0 54q0 25 0 43q0 18 0 38q0 21 0 42q0 22 0 44z"/><path id="tilt-15" d="M300 2q25 5 40-6q14-11 18-28q3-18-7-34q-10-15-35-20q-23-5-42-12q-18-8-38-21q-32-22-55-55q-23-34-35-76q-11-43-11-91q0-57 17-105q16-47 47-82q31-34 74-53q43-19 95-19q52 0 94 19q42 19 72 54q30 35 46 82q17 47 17 104q0 47-11 89q-12 41-34 74q-21 33-52 56q-19 14-38 22q-20 9-43 14q-25 5-35 20q-9 16-6 34q4 17 19 28q15 11 40 6q32-6 61-18q28-13 56-34q41-31 71-74q30-44 46-99q16-55 16-118q0-102-41-181q-41-78-113-123q-72-45-165-45q-93 0-166 44q-73 45-115 124q-42 79-42 181q0 65 17 121q17 57 49 101q32 44 75 74q27 18 54 29q28 12 60 18z"/><path id="tilt-16" d="M225-343q-26 0-39 13q-12 14-12 32q0 18 12 32q13 13 39 13q29 0 45 0q15 0 37 0q61 0 109-27q49-28 76-76q28-48 28-110q0-46-16-85q-16-39-46-68q-29-29-70-45q-42-16-93-16q-14 0-29 0q-16 0-31 0q-15 0-29 0q-34 0-58 8q-25 7-40 23q-14 16-21 41q-7 24-7 58q0 57 0 109q0 52 0 99q0 47 0 88q0 42 0 76q0 21 0 43q0 22 0 46q0 24 0 49q0 26 14 38q13 13 31 13q18 0 31-13q14-13 14-38q0-25 0-47q0-22 0-44q0-22 0-47q0-51 0-102q0-50 0-98q0-47 0-90q0-44 0-82q0-14 0-22q1-8 4-12q3-4 10-5q8-1 22-1q25 0 44 0q20 0 45 0q42 0 72 16q30 15 47 42q16 28 16 66q0 37-16 64q-15 28-43 44q-28 15-64 15q-20 0-37 0q-17 0-45 0z"/><path id="tilt-18" d="M80-40q0 25 14 38q13 13 31 13q18 0 31-13q14-13 14-38q0-25 0-46q0-20 0-38q0-19 0-37q0-33 0-72q0-39 0-84q0-45 0-95q0-49 0-103q0-18 0-32q-1-14 0-23q2-10 8-15q6-5 19-5q15 0 35 0q19 0 48 0q40 0 69 14q29 14 45 40q16 25 16 60q0 35-15 60q-15 26-41 40q-27 13-62 13q-8 0-16 0q-8 0-15 0q-7 0-15 0q-8 0-16 0q-20 0-32 9q-13 9-17 22q-4 14 0 28q4 13 17 22q12 9 32 9q40 0 61 6q21 6 35 20q15 14 33 39q16 21 31 44q14 23 29 47q15 24 31 49q15 26 32 52q14 22 32 25q19 3 34-7q14-9 19-27q5-18-9-39q-17-27-32-52q-16-25-31-50q-15-24-31-48q-15-23-31-46q-15-21-33-40q-17-18-40-32q-24-15-56-23q-31-8-74-8q-20 0-32 9q-13 9-17 22q-4 14 0 28q4 13 17 22q12 9 32 9q3 0 8 0q6 0 13 0q7 0 15 0q8 0 16 0q60 0 110-26q49-26 78-71q30-46 30-106q0-44-16-81q-15-37-44-65q-29-27-70-42q-40-16-90-16q-19 0-44 0q-26 0-49 0q-34 0-55 10q-21 10-32 30q-12 20-16 52q-4 31-4 73q0 36 0 87q0 51 0 104q0 53 0 97q0 44 0 66q0 15 0 35q0 21 0 44q0 22 0 42z"/><path id="tilt-20" d="M423-590q26 0 39-14q12-13 12-31q0-18-12-31q-13-14-39-14q-10 0-39 0q-28 0-68 0q-40 0-84 0q-43 0-84 0q-42 0-73 0q-20 0-33 9q-12 9-16 23q-4 13 0 26q4 14 16 23q13 9 33 9q24 0 47 1q23 1 42 8q18 7 29 23q11 17 11 48q0 32 0 78q0 46 0 94q0 49 0 88q0 40 0 59q0 24 0 51q0 27 0 52q0 26 0 48q0 25 14 38q13 13 31 13q18 0 31-13q14-13 14-38q0-22 0-48q0-25 0-52q0-27 0-51q0-19 0-56q0-37 0-83q0-45 0-92q0-48 0-88q0-38-12-66q-13-28-35-48q-22-20-50-32q-28-13-59-18q-32-6-63-6q-20 0-33 9q-12 9-16 23q-4 13 0 26q4 14 16 23q13 9 33 9q19 0 55 0q37 0 80 0q44 0 88 0q43 0 76 0q34 0 49 0z"/><path id="tilt-23" d="M123-653q-7-24-24-33q-17-8-34-2q-17 5-26 21q-9 16-2 40q7 21 17 53q9 31 20 65q11 34 20 64q12 41 24 81q12 41 24 79q11 38 21 72q5 17 10 33q5 17 10 33q5 16 11 33q5 16 10 34q6 18 12 38q6 20 18 32q12 13 27 17q15 4 29 0q15-4 27-17q12-13 18-35q6-22 11-41q5-19 10-36q5-17 10-33q4-16 8-32q5-16 9-33q5-21 11-46q7-26 14-56q8-30 17-65q9-35 19-75q7-29 18-49q11-20 20-36q9-16 13-35q4-18-2-44q-6-26-21-39q-14-13-30-13q-16 0-30 12q-15 13-21 39q-6 25-2 44q4 19 13 36q10 17 21 37q11 21 18 50q10 40 19 75q9 35 16 65q8 30 15 56q7 25 12 46q4 17 9 34q4 17 8 34q4 17 8 34q5 18 10 36q4 19 8 39q5 19 16 31q12 12 28 16q15 3 31-1q16-4 29-16q14-12 21-32q8-20 14-39q6-19 12-36q6-18 11-34q5-17 10-33q4-16 9-31q9-29 18-58q9-29 18-59q9-30 19-63q10-34 21-72q9-28 17-56q9-29 17-56q8-26 14-47q8-24-1-40q-10-16-27-21q-17-6-33 2q-17 9-25 33q-6 21-15 47q-8 27-17 57q-9 30-18 61q-10 35-21 72q-11 36-21 70q-10 33-18 58q-8 26-12 40q-3 9-6 18q-3 9-6 18q-3 10-5 18q-3 9-5 16q-2 7-4 12q-1 5-2 8q-1 2-1 3q-1 1-2 0q0-1 0-4q-1-3-2-7q-1-4-3-10q-2-7-4-16q-2-8-5-18q-2-9-5-18q-3-10-5-20q-4-15-14-50q-9-36-20-78q-10-41-18-73q-4-16-8-36q-5-20-10-43q-6-22-12-47q-7-25-13-51q-6-26-21-39q-14-13-30-13q-16 0-30 12q-15 13-21 39q-6 25-13 50q-6 25-12 48q-5 23-10 44q-5 21-10 38q-5 22-12 51q-8 30-15 60q-7 30-13 53q-6 23-8 33q-3 10-6 20q-2 9-4 18q-2 8-4 16q-2 7-4 13q-1 6-2 10q-1 4-2 7q-1 2-2 2q0 1-1 0q-1-1-2-4q-1-3-2-7q-1-4-3-9q-2-6-4-12q-2-7-4-14q-3-8-6-17q-2-9-5-19q-5-16-17-54q-11-37-24-84q-14-47-27-89q-8-29-19-63q-11-34-20-66q-10-31-17-51z"/><linearGradient id="fg" x1="0" y1="0" x2="1" y2=".25" spreadMethod="reflect"><stop offset="0" stop-color="#7A5A24"/><stop offset="0.22" stop-color="#C9A25A"/><stop offset="0.45" stop-color="#FFF0C8"/><stop offset="0.55" stop-color="#E6C27A"/><stop offset="0.78" stop-color="#A67C36"/><stop offset="1" stop-color="#6E5020"/><animateTransform attributeName="gradientTransform" type="translate" values="-1.2 0;1.2 0;1.2 0" keyTimes="0;.55;1" dur="9s" repeatCount="indefinite"/></linearGradient><linearGradient id="gtext" x1="0" y1="0" x2="0" y2="1"><stop offset="0" stop-color="#FFF1CC"/><stop offset=".45" stop-color="#E6C27A"/><stop offset="1" stop-color="#A9802F"/></linearGradient><pattern id="brick" width="72" height="30" patternUnits="userSpaceOnUse"><rect width="72" height="30" fill="#0E0B09"/><rect x="1" y="1" width="70" height="13" rx="1.5" fill="#15110D"/><rect x="-35" y="16" width="70" height="13" rx="1.5" fill="#15110D"/><rect x="37" y="16" width="70" height="13" rx="1.5" fill="#15110D"/></pattern><radialGradient id="warm" gradientUnits="objectBoundingBox" cx="0.5" cy="0.42" r="0.62"><stop offset="0" stop-color="#FF9E4A" stop-opacity="0.2"/><stop offset="0.45" stop-color="#FF8A3D" stop-opacity="0.07"/><stop offset="1" stop-color="#000" stop-opacity="0"/></radialGradient><radialGradient id="vig" gradientUnits="objectBoundingBox" cx="0.5" cy="0.5" r="0.75"><stop offset="0" stop-color="#000" stop-opacity="0"/><stop offset="0.62" stop-color="#000" stop-opacity="0.25"/><stop offset="1" stop-color="#000" stop-opacity="0.88"/></radialGradient><filter id="soft" x="-50%" y="-50%" width="200%" height="200%"><feGaussianBlur stdDeviation="2.2"/></filter><filter id="gAmber" x="-30%" y="-60%" width="160%" height="220%" color-interpolation-filters="sRGB"><feGaussianBlur in="SourceAlpha" stdDeviation="3" result="b0"/><feFlood flood-color="#FF9D3C" flood-opacity="0.95" result="c0"/><feComposite in="c0" in2="b0" operator="in" result="g0"/><feGaussianBlur in="SourceAlpha" stdDeviation="9" result="b1"/><feFlood flood-color="#FF9D3C" flood-opacity="0.78" result="c1"/><feComposite in="c1" in2="b1" operator="in" result="g1"/><feGaussianBlur in="SourceAlpha" stdDeviation="22" result="b2"/><feFlood flood-color="#FF9D3C" flood-opacity="0.61" result="c2"/><feComposite in="c2" in2="b2" operator="in" result="g2"/><feGaussianBlur in="SourceGraphic" stdDeviation="0.35" result="core"/><feMerge><feMergeNode in="g2"/><feMergeNode in="g1"/><feMergeNode in="g0"/><feMergeNode in="core"/></feMerge></filter><filter id="gCyan" x="-30%" y="-60%" width="160%" height="220%" color-interpolation-filters="sRGB"><feGaussianBlur in="SourceAlpha" stdDeviation="2.5" result="b0"/><feFlood flood-color="#3FE4FF" flood-opacity="0.9" result="c0"/><feComposite in="c0" in2="b0" operator="in" result="g0"/><feGaussianBlur in="SourceAlpha" stdDeviation="7" result="b1"/><feFlood flood-color="#3FE4FF" flood-opacity="0.74" result="c1"/><feComposite in="c1" in2="b1" operator="in" result="g1"/><feGaussianBlur in="SourceAlpha" stdDeviation="16" result="b2"/><feFlood flood-color="#3FE4FF" flood-opacity="0.58" result="c2"/><feComposite in="c2" in2="b2" operator="in" result="g2"/><feGaussianBlur in="SourceGraphic" stdDeviation="0.3" result="core"/><feMerge><feMergeNode in="g2"/><feMergeNode in="g1"/><feMergeNode in="g0"/><feMergeNode in="core"/></feMerge></filter><filter id="gGreen" x="-30%" y="-60%" width="160%" height="220%" color-interpolation-filters="sRGB"><feGaussianBlur in="SourceAlpha" stdDeviation="2" result="b0"/><feFlood flood-color="#7CFF6B" flood-opacity="0.9" result="c0"/><feComposite in="c0" in2="b0" operator="in" result="g0"/><feGaussianBlur in="SourceAlpha" stdDeviation="6" result="b1"/><feFlood flood-color="#7CFF6B" flood-opacity="0.74" result="c1"/><feComposite in="c1" in2="b1" operator="in" result="g1"/><feGaussianBlur in="SourceAlpha" stdDeviation="12" result="b2"/><feFlood flood-color="#7CFF6B" flood-opacity="0.58" result="c2"/><feComposite in="c2" in2="b2" operator="in" result="g2"/><feGaussianBlur in="SourceGraphic" stdDeviation="0.3" result="core"/><feMerge><feMergeNode in="g2"/><feMergeNode in="g1"/><feMergeNode in="g0"/><feMergeNode in="core"/></feMerge></filter><filter id="gRed" x="-30%" y="-60%" width="160%" height="220%" color-interpolation-filters="sRGB"><feGaussianBlur in="SourceAlpha" stdDeviation="2.5" result="b0"/><feFlood flood-color="#FF3B4E" flood-opacity="0.95" result="c0"/><feComposite in="c0" in2="b0" operator="in" result="g0"/><feGaussianBlur in="SourceAlpha" stdDeviation="7" result="b1"/><feFlood flood-color="#FF3B4E" flood-opacity="0.78" result="c1"/><feComposite in="c1" in2="b1" operator="in" result="g1"/><feGaussianBlur in="SourceAlpha" stdDeviation="17" result="b2"/><feFlood flood-color="#FF3B4E" flood-opacity="0.61" result="c2"/><feComposite in="c2" in2="b2" operator="in" result="g2"/><feGaussianBlur in="SourceGraphic" stdDeviation="0.3" result="core"/><feMerge><feMergeNode in="g2"/><feMergeNode in="g1"/><feMergeNode in="g0"/><feMergeNode in="core"/></feMerge></filter></defs>
<rect width="1200" height="470" rx="18" fill="#0B0A09"/>
<rect width="1200" height="470" rx="18" fill="url(#brick)"/>
<rect width="1200" height="470" rx="18" fill="url(#warm)"/>
<rect width="1200" height="470" rx="18" fill="url(#vig)"/>
<g filter="url(#soft)"><circle class="bokeh" cx="409.74" cy="234.7" r="5.25" fill="#FFC37A" style="--o:0.14;animation-duration:15.29s;animation-delay:-5.59s"/><circle class="bokeh" cx="1042.48" cy="249.38" r="2.43" fill="#FFC37A" style="--o:0.22;animation-duration:12.93s;animation-delay:-7.12s"/><circle class="bokeh" cx="953" cy="228.47" r="3.12" fill="#FFD9A0" style="--o:0.26;animation-duration:18.58s;animation-delay:-10.72s"/><circle class="bokeh" cx="113.56" cy="250.85" r="4.78" fill="#FF9E5E" style="--o:0.15;animation-duration:14.35s;animation-delay:-7.76s"/><circle class="bokeh" cx="393.16" cy="387.71" r="2.9" fill="#FF9E5E" style="--o:0.25;animation-duration:16.11s;animation-delay:-6s"/><circle class="bokeh" cx="829.08" cy="329.8" r="5.1" fill="#FFD9A0" style="--o:0.23;animation-duration:15.25s;animation-delay:-11.86s"/><circle class="bokeh" cx="692.41" cy="304.23" r="3.5" fill="#FF9E5E" style="--o:0.3;animation-duration:16.59s;animation-delay:-4.05s"/><circle class="bokeh" cx="384.27" cy="313.88" r="3.72" fill="#FF9E5E" style="--o:0.22;animation-duration:15.87s;animation-delay:-1.16s"/><circle class="bokeh" cx="511.57" cy="374.14" r="2.76" fill="#FF9E5E" style="--o:0.23;animation-duration:11.31s;animation-delay:-7.56s"/><circle class="bokeh" cx="678.87" cy="401.36" r="3.57" fill="#FFD9A0" style="--o:0.28;animation-duration:15.75s;animation-delay:-9.14s"/><circle class="bokeh" cx="134.26" cy="221.53" r="3.35" fill="#FFD9A0" style="--o:0.28;animation-duration:11.52s;animation-delay:-8.42s"/><circle class="bokeh" cx="758.9" cy="428.41" r="6.11" fill="#FFC37A" style="--o:0.19;animation-duration:14.09s;animation-delay:-9.42s"/><circle class="bokeh" cx="1075.9" cy="281.76" r="5.05" fill="#FF9E5E" style="--o:0.23;animation-duration:12.75s;animation-delay:-3.66s"/><circle class="bokeh" cx="327.42" cy="289.92" r="6.36" fill="#FFC37A" style="--o:0.14;animation-duration:14.59s;animation-delay:-8.02s"/></g>
<g class="rise"><g transform="translate(447.23 70) scale(0.014)" fill="url(#gtext)"><use href="#deco-148" x="0"/><use href="#deco-25" x="939.1"/><use href="#deco-108" x="1951.3"/><use href="#deco-139" x="3840.6"/><use href="#deco-1" x="4736.7"/><use href="#deco-161" x="5772.9"/><use href="#deco-90" x="6871"/><use href="#deco-108" x="7842.1"/><use href="#deco-439" x="10408.6"/><use href="#deco-28" x="12292"/><use href="#deco-1" x="13259.1"/><use href="#deco-142" x="14315.3"/><use href="#deco-530" x="16019.6"/><use href="#deco-29" x="17784.9"/><use href="#deco-108" x="18837"/><use href="#deco-35" x="20049.1"/><use href="#deco-41" x="21166.3"/></g><line x1="357.23" y1="64" x2="425.23" y2="64" stroke="#8C6A2F" stroke-width="0.8"/><line x1="774.77" y1="64" x2="842.77" y2="64" stroke="#8C6A2F" stroke-width="0.8"/><rect x="596" y="60" width="8" height="8" transform="rotate(45 600 64)" fill="#8C6A2F"/><circle cx="351.23" cy="64" r="1.6" fill="#8C6A2F"/><circle cx="848.77" cy="64" r="1.6" fill="#8C6A2F"/></g>
<g class="on"><g class="buzz"><g filter="url(#gAmber)" class="breathe"><g transform="translate(282.94 250) scale(0.05762)" fill="#FFB25E" stroke="#FFB25E" stroke-width="55.54" stroke-linejoin="round"><use href="#neon-365" x="0"/><use href="#neon-27" x="1739"/><use href="#neon-44" x="2443"/><use href="#neon-38" x="3064"/><use href="#neon-41" x="3565"/><use href="#neon-45" x="4212"/><use href="#neon-6" x="5182"/><use href="#neon-44" x="7398"/><use href="#neon-27" x="8019"/><use href="#neon-40" x="8723"/><use href="#neon-29" x="9634"/><use href="#neon-41" x="10220"/></g></g><g transform="translate(282.94 250) scale(0.05762)" fill="#FFF6E4"><use href="#neon-365" x="0"/><use href="#neon-27" x="1739"/><use href="#neon-44" x="2443"/><use href="#neon-38" x="3064"/><use href="#neon-41" x="3565"/><use href="#neon-45" x="4212"/><use href="#neon-6" x="5182"/><use href="#neon-44" x="7398"/><use href="#neon-27" x="8019"/><use href="#neon-40" x="8723"/><use href="#neon-29" x="9634"/><use href="#neon-41" x="10220"/></g></g></g>
<g class="on2"><g class="tw"><path d="M113 150 L237 150 L175 228 Z M175 228 L175 300 M137 306 Q175 294 213 306" fill="none" stroke="#3FE4FF" stroke-width="5" stroke-linecap="round" stroke-linejoin="round" filter="url(#gCyan)"/><path d="M113 150 L237 150 L175 228 Z M175 228 L175 300 M137 306 Q175 294 213 306" fill="none" stroke="#E9FDFF" stroke-width="1.8" stroke-linecap="round" stroke-linejoin="round"/><path d="M128 167 L222 167" fill="none" stroke="#3FE4FF" stroke-width="3" stroke-linecap="round" opacity=".7" filter="url(#gCyan)"/></g><g class="blink2"><line x1="219" y1="112" x2="181" y2="190" stroke="#FFD58A" stroke-width="3" stroke-linecap="round" filter="url(#gAmber)"/><circle cx="192" cy="168" r="12" fill="none" stroke="#7CFF6B" stroke-width="4.5" filter="url(#gGreen)"/><circle cx="192" cy="168" r="12" fill="none" stroke="#EFFFE9" stroke-width="1.6"/><circle cx="196" cy="164" r="3" fill="#FF6B5A" filter="url(#gAmber)"/></g></g>
<g transform="rotate(-3 1046 30)"><line x1="979.0" y1="138" x2="991.0" y2="30" stroke="#5A4A30" stroke-width="1.3" stroke-dasharray="3 2"/><line x1="1113.0" y1="138" x2="1101.0" y2="30" stroke="#5A4A30" stroke-width="1.3" stroke-dasharray="3 2"/><rect x="957.0" y="138" width="178" height="114" rx="14" fill="#140B0C" opacity=".85" stroke="#2B1B1C"/><g class="on3"><rect x="967.0" y="148" width="158" height="94" rx="10" fill="none" stroke="#FF3B4E" stroke-width="3.2" filter="url(#gRed)"/><rect x="967.0" y="148" width="158" height="94" rx="10" fill="none" stroke="#FFD9DC" stroke-width="1.1"/><g filter="url(#gRed)"><g transform="translate(985.04 196) scale(0.044)" fill="#FF3B4E" stroke="#FF3B4E" stroke-width="27.27"><use href="#tilt-15" x="0"/><use href="#tilt-16" x="822.9"/><use href="#tilt-5" x="1468.8"/><use href="#tilt-14" x="2082.7"/></g></g><g transform="translate(985.04 196) scale(0.044)" fill="#FFE9EA"><use href="#tilt-15" x="0"/><use href="#tilt-16" x="822.9"/><use href="#tilt-5" x="1468.8"/><use href="#tilt-14" x="2082.7"/></g><g class="blink"><g filter="url(#gRed)"><g transform="translate(983.29 228) scale(0.022)" fill="#FF3B4E" stroke="#FF3B4E" stroke-width="45.45"><use href="#tilt-20" x="0"/><use href="#tilt-15" x="718"/><use href="#tilt-23" x="2165"/><use href="#tilt-15" x="3283"/><use href="#tilt-18" x="4265"/><use href="#tilt-11" x="5110"/></g></g><g transform="translate(983.29 228) scale(0.022)" fill="#FFE9EA"><use href="#tilt-20" x="0"/><use href="#tilt-15" x="718"/><use href="#tilt-23" x="2165"/><use href="#tilt-15" x="3283"/><use href="#tilt-18" x="4265"/><use href="#tilt-11" x="5110"/></g></g></g></g>
<g class="rise" style="animation-delay:1.1s"><g transform="translate(212.63 350) scale(0.022)" fill="url(#gtext)"><use href="#deco-148" x="0"/><use href="#deco-108" x="877.5"/><use href="#deco-61" x="2027.9"/><use href="#deco-156" x="2916.4"/><use href="#deco-184" x="3794.8"/><use href="#deco-1" x="5009.3"/><use href="#deco-142" x="6003.7"/><use href="#deco-41" x="6969.2"/><use href="#deco-41" x="8538.1"/><use href="#deco-99" x="9491.5"/><use href="#deco-62" x="10631"/><use href="#deco-71" x="11682.5"/><use href="#deco-99" x="12294.9"/><use href="#deco-41" x="13434.4"/><use href="#deco-41" x="14387.8"/><use href="#deco-142" x="15341.3"/><use href="#deco-439" x="17537.6"/><use href="#deco-1" x="19236"/><use href="#deco-71" x="20230.5"/><use href="#deco-139" x="21458.4"/><use href="#deco-142" x="22364.8"/><use href="#deco-108" x="23310.3"/><use href="#deco-35" x="24460.7"/><use href="#deco-161" x="25516.2"/><use href="#deco-29" x="26552.6"/><use href="#deco-156" x="27543.1"/><use href="#deco-28" x="29037"/><use href="#deco-161" x="29962.5"/><use href="#deco-71" x="30998.9"/><use href="#deco-90" x="31611.4"/><use href="#deco-35" x="32536.8"/><use href="#deco-41" x="33592.3"/><use href="#deco-142" x="34545.7"/></g><line x1="480" y1="306" x2="586" y2="306" stroke="#B08A45" stroke-width="1"/><line x1="614" y1="306" x2="720" y2="306" stroke="#B08A45" stroke-width="1"/><rect x="596" y="302" width="8" height="8" transform="rotate(45 600 306)" fill="#B08A45"/><circle cx="474" cy="306" r="1.6" fill="#B08A45"/><circle cx="726" cy="306" r="1.6" fill="#B08A45"/></g>
<g class="rise" style="animation-delay:1.5s"><g transform="translate(365.79 398) scale(0.023)" fill="#F4ECDC" opacity=".78"><use href="#serifi-140" x="0"/><use href="#serifi-225" x="550"/><use href="#serifi-287" x="992"/><use href="#serifi-366" x="1834"/><use href="#serifi-225" x="2315"/><use href="#serifi-190" x="2757"/><use href="#serifi-322" x="3292"/><use href="#serifi-326" x="3733"/><use href="#serifi-214" x="4381"/><use href="#serifi-225" x="4899"/><use href="#serifi-255" x="5341"/><use href="#serifi-259" x="5888"/><use href="#serifi-287" x="6197"/><use href="#serifi-221" x="6785"/><use href="#serifi-334" x="7593"/><use href="#serifi-255" x="7935"/><use href="#serifi-225" x="8482"/><use href="#serifi-214" x="9178"/><use href="#serifi-190" x="9696"/><use href="#serifi-322" x="10231"/><use href="#serifi-861" x="10672"/><use href="#serifi-94" x="11182"/><use href="#serifi-294" x="11900"/><use href="#serifi-360" x="12402"/><use href="#serifi-69" x="13339"/><use href="#serifi-214" x="13950"/><use href="#serifi-339" x="14468"/><use href="#serifi-259" x="15045"/><use href="#serifi-280" x="15368"/><use href="#serifi-221" x="15653"/><use href="#serifi-326" x="16461"/><use href="#serifi-294" x="16855"/><use href="#serifi-246" x="17357"/><use href="#serifi-334" x="17685"/><use href="#serifi-360" x="18027"/><use href="#serifi-190" x="18710"/><use href="#serifi-322" x="19245"/><use href="#serifi-225" x="19668"/><use href="#serifi-861" x="20110"/></g></g>
<rect x="12" y="12" width="1176" height="446" rx="10" fill="none" stroke="url(#fg)" stroke-width="1.6"/><rect x="19" y="19" width="1162" height="432" rx="3" fill="none" stroke="url(#fg)" stroke-width=".7" opacity=".7"/><path d="M25 71 V25 H71" fill="none" stroke="url(#fg)" stroke-width="1.32" opacity="1"/><path d="M31 55 V31 H55" fill="none" stroke="url(#fg)" stroke-width="0.96" opacity="0.75"/><path d="M37 43 V37 H43" fill="none" stroke="url(#fg)" stroke-width="0.84" opacity="0.55"/><rect x="44.4" y="44.4" width="5.2" height="5.2" transform="rotate(45 47 47)" fill="url(#fg)"/><path d="M1175 71 V25 H1129" fill="none" stroke="url(#fg)" stroke-width="1.32" opacity="1"/><path d="M1169 55 V31 H1145" fill="none" stroke="url(#fg)" stroke-width="0.96" opacity="0.75"/><path d="M1163 43 V37 H1157" fill="none" stroke="url(#fg)" stroke-width="0.84" opacity="0.55"/><rect x="1150.4" y="44.4" width="5.2" height="5.2" transform="rotate(45 1153 47)" fill="url(#fg)"/><path d="M25 399 V445 H71" fill="none" stroke="url(#fg)" stroke-width="1.32" opacity="1"/><path d="M31 415 V439 H55" fill="none" stroke="url(#fg)" stroke-width="0.96" opacity="0.75"/><path d="M37 427 V433 H43" fill="none" stroke="url(#fg)" stroke-width="0.84" opacity="0.55"/><rect x="44.4" y="420.4" width="5.2" height="5.2" transform="rotate(45 47 423)" fill="url(#fg)"/><path d="M1175 399 V445 H1129" fill="none" stroke="url(#fg)" stroke-width="1.32" opacity="1"/><path d="M1169 415 V439 H1145" fill="none" stroke="url(#fg)" stroke-width="0.96" opacity="0.75"/><path d="M1163 427 V433 H1157" fill="none" stroke="url(#fg)" stroke-width="0.84" opacity="0.55"/><rect x="1150.4" y="420.4" width="5.2" height="5.2" transform="rotate(45 1153 423)" fill="url(#fg)"/>
</svg>